<?xml version="1.0" standalone="no"?>
<!DOCTYPE svg PUBLIC "-//W3C//DTD SVG 20010904//EN"
 "http://www.w3.org/TR/2001/REC-SVG-20010904/DTD/svg10.dtd">
<svg version="1.0" xmlns="http://www.w3.org/2000/svg"
 width="394.000000pt" height="394.000000pt" viewBox="0 0 394.000000 394.000000"
 preserveAspectRatio="xMidYMid meet">
<metadata>
Created by potrace 1.14, written by Peter Selinger 2001-2017
</metadata>
<g transform="translate(0.000000,394.000000) scale(0.100000,-0.100000)"
fill="#000000" stroke="none">
<path d="M2290 2820 c0 -6 7 -10 15 -10 33 0 31 -32 -11 -213 -24 -100 -47
-189 -52 -197 -5 -8 -22 -18 -38 -21 -22 -4 9 -14 126 -43 85 -20 162 -39 171
-42 13 -3 19 7 27 48 6 29 14 61 18 72 5 14 3 17 -7 14 -8 -3 -15 -10 -15 -16
-1 -7 -2 -16 -3 -21 0 -4 -12 -20 -26 -35 -28 -30 -64 -33 -135 -12 -39 12
-45 17 -46 42 0 16 3 43 8 59 5 17 22 91 39 165 36 156 43 174 70 167 10 -3
21 -2 24 3 3 4 -28 15 -68 25 -39 9 -78 18 -84 21 -7 2 -13 -1 -13 -6z"/>
<path d="M1435 2730 c-44 -16 -88 -29 -97 -29 -9 -1 -20 -6 -24 -13 -5 -7 -1
-9 13 -6 12 3 26 2 33 -2 11 -7 42 -92 110 -303 28 -87 28 -89 9 -108 -10 -10
-19 -21 -19 -23 0 -8 144 44 155 55 7 8 4 9 -11 5 -14 -4 -28 -1 -37 9 -14 13
-71 175 -65 181 2 1 21 7 43 13 50 13 76 -2 113 -67 59 -102 110 -127 158 -75
13 14 22 28 19 31 -3 3 -11 -3 -19 -13 -20 -27 -40 -13 -87 60 -44 70 -62 85
-104 85 l-27 0 31 26 c17 14 36 43 42 64 10 32 9 44 -7 76 -35 71 -97 80 -229
34z m125 -7 c32 -22 38 -30 51 -77 18 -65 -15 -111 -93 -130 -26 -6 -27 -4
-56 86 -32 102 -30 112 22 127 45 13 49 13 76 -6z"/>
<path d="M1027 2524 c-47 -37 -64 -64 -28 -44 27 14 60 -2 89 -43 12 -18 34
-46 49 -62 104 -112 135 -182 108 -240 -30 -63 -90 -85 -144 -54 -41 23 -224
240 -229 270 -2 11 2 27 8 35 24 28 -3 13 -60 -33 -33 -27 -59 -51 -59 -55 -1
-4 12 -5 27 -2 26 5 35 -2 98 -78 94 -113 154 -177 173 -182 52 -16 83 -15
119 3 69 35 103 88 96 149 -6 48 -22 75 -123 197 -87 105 -108 147 -78 158 6
2 9 7 6 11 -3 3 -27 -10 -52 -30z"/>
<path d="M2853 2539 c-50 -24 -103 -81 -134 -141 -33 -63 -31 -151 3 -201 110
-162 313 -127 404 68 14 29 24 69 24 95 0 143 -167 244 -297 179z m195 -27
c82 -53 56 -206 -53 -317 -73 -74 -133 -91 -192 -55 -42 25 -55 52 -55 111 1
58 29 127 78 186 74 91 155 118 222 75z"/>
<path d="M3259 2068 c-68 -34 -123 -92 -140 -146 -25 -86 18 -190 100 -239 41
-24 42 -26 25 -44 -27 -30 -5 -22 76 26 78 47 90 52 90 34 0 -5 4 -8 9 -4 11
6 -67 135 -81 135 -5 0 -4 -9 2 -19 18 -35 11 -49 -46 -85 -52 -32 -59 -34
-83 -22 -34 18 -71 84 -71 127 0 67 74 144 185 195 125 58 220 21 238 -92 6
-36 -12 -83 -43 -114 -36 -36 -13 -35 47 2 61 38 83 65 40 49 -24 -9 -24 -8
-30 51 -13 150 -168 221 -318 146z"/>
<path d="M595 2003 c-24 -6 -74 -41 -93 -63 -27 -31 -52 -96 -52 -136 0 -60
42 -137 98 -177 61 -43 92 -56 155 -63 154 -18 269 155 196 296 -26 49 -79 97
-137 122 -45 20 -132 31 -167 21z m145 -86 c153 -75 206 -209 109 -274 -35
-23 -46 -25 -102 -21 -138 11 -278 126 -272 224 2 34 30 77 60 93 37 19 145 8
205 -22z"/>
<path d="M3507 1529 c-151 -35 -226 -166 -168 -294 43 -96 154 -143 273 -115
146 34 214 136 179 267 -30 109 -154 171 -284 142z m205 -81 c47 -23 70 -57
70 -103 0 -141 -286 -226 -407 -122 -33 28 -37 38 -37 75 1 72 61 131 162 159
65 18 167 14 212 -9z"/>
<path d="M306 1450 c-10 -46 -14 -100 -7 -100 3 0 11 10 16 23 7 15 18 22 36
20 25 -1 161 -83 174 -103 4 -6 11 -8 16 -5 5 4 9 -1 9 -9 0 -9 -6 -16 -13
-16 -6 0 -53 -16 -102 -35 -126 -50 -134 -50 -142 -14 -8 40 -14 31 -19 -28
-3 -26 -7 -57 -9 -69 -6 -27 5 -38 19 -20 6 7 76 39 155 70 129 50 149 55 195
50 74 -9 96 -20 96 -46 1 -18 3 -20 9 -8 13 22 25 169 12 150 -5 -8 -8 -17 -5
-21 9 -15 -37 -20 -105 -13 -65 6 -78 11 -183 81 -62 40 -121 84 -130 96 l-16
22 -6 -25z"/>
</g>
</svg>
